<svg width="18" height="18" viewBox="0 0 18 18" fill="none" xmlns="http://www.w3.org/2000/svg">
<path d="M8.54426 11.0923L8.53777 10.573C8.50532 9.65788 8.90124 9.07373 9.79043 8.54151C10.5758 8.06771 10.8549 7.69126 10.8549 7.02923V7.01625C10.8549 6.28932 10.2772 5.75061 9.38803 5.75061C8.49234 5.75061 7.91469 6.28932 7.86277 7.14606H7.84978L6.51275 7.15255V7.13957C6.57116 5.67273 7.57718 4.55636 9.45942 4.55636C11.1729 4.55636 12.3282 5.57537 12.3282 6.95784V6.97082C12.3282 7.97035 11.822 8.67781 10.9652 9.19056C10.1279 9.68384 9.88779 10.0278 9.88779 10.6964V11.0923H8.54426ZM9.29716 14.1428C8.70004 14.1428 8.29114 13.7534 8.29114 13.1757C8.29114 12.5916 8.70004 12.2021 9.29716 12.2021C9.89428 12.2021 10.2967 12.5916 10.2967 13.1757C10.2967 13.7534 9.89428 14.1428 9.29716 14.1428Z" fill="white"/>
<rect x="0.5" y="0.5" width="17" height="17" rx="3.5" stroke="#E7E7EF" stroke-opacity="0.3"/>
</svg>
